<svg width="57" height="60" viewBox="0 0 57 60" fill="none" xmlns="http://www.w3.org/2000/svg">
<path d="M28.6067 14.4546C19.9615 14.4546 12.9531 21.4146 12.9531 30.0001C12.9531 38.5856 19.9615 45.5455 28.6067 45.5455C36.3632 45.5455 42.8019 39.9433 44.044 32.5909H43.9317C42.7732 37.0609 38.6873 40.3638 33.8246 40.3638C28.0612 40.3638 23.3889 35.7238 23.3889 30.0001C23.3889 24.2764 28.0612 19.6365 33.8246 19.6365C38.6873 19.6365 42.7732 22.9392 43.9317 27.4092H44.044C42.8019 20.0569 36.3632 14.4546 28.6067 14.4546Z" fill="#A4BCFD"/>
<path d="M12.9531 30.0001C12.9531 21.4146 19.9615 14.4546 28.6067 14.4546C36.3631 14.4546 42.8019 20.0569 44.044 27.4092H33.4959C32.3374 22.9392 28.2515 19.6365 23.3889 19.6365C17.6253 19.6365 12.9531 24.2764 12.9531 30.0001Z" fill="#3538CD"/>
<path d="M12.9531 29.9995C12.9531 38.585 19.9615 45.545 28.6067 45.545C36.3631 45.545 42.8019 39.9427 44.044 32.5904H33.4959C32.3374 37.0604 28.2515 40.3632 23.3889 40.3632C17.6253 40.3632 12.9531 35.7233 12.9531 29.9995Z" fill="#3538CD"/>
</svg>
