<svg width="80" height="80" viewBox="0 0 80 80" fill="none" xmlns="http://www.w3.org/2000/svg">
<g clip-path="url(#clip0_1_60107)">
<path d="M45.5534 19.3313L41.2629 18.1816L37.6472 31.6757L34.3828 19.4932L30.0922 20.6428L33.6191 33.8052L24.8344 25.0205L21.6934 28.1615L31.3292 37.7973L19.3294 34.5819L18.1797 38.8725L31.291 42.3857C31.1409 41.7382 31.0614 41.0636 31.0614 40.3704C31.0614 35.4639 35.0389 31.4865 39.9454 31.4865C44.8519 31.4865 48.8293 35.4639 48.8293 40.3704C48.8293 41.0591 48.7509 41.7296 48.6026 42.3732L60.5183 45.566L61.6679 41.2754L48.5046 37.7483L60.5051 34.5327L59.3554 30.2422L46.1926 33.7691L54.9773 24.9845L51.8363 21.8435L42.3343 31.3456L45.5534 19.3313Z" fill="#FF4405"/>
<path d="M48.5929 42.4233C48.225 43.9785 47.4484 45.3756 46.3828 46.495L55.0152 55.1275L58.1562 51.9865L48.5929 42.4233Z" fill="#FF4405"/>
<path d="M46.2978 46.585C45.2193 47.6865 43.8564 48.5085 42.3281 48.9321L45.4692 60.6551L49.7598 59.5054L46.2978 46.585Z" fill="#FF4405"/>
<path d="M42.1615 48.9749C41.4524 49.1572 40.7092 49.2541 39.9432 49.2541C39.1227 49.2541 38.328 49.1428 37.5737 48.9346L34.4297 60.6682L38.7202 61.8178L42.1615 48.9749Z" fill="#FF4405"/>
<path d="M37.4288 48.8916C35.9237 48.447 34.5851 47.6145 33.5286 46.5098L24.875 55.1635L28.016 58.3044L37.4288 48.8916Z" fill="#FF4405"/>
<path d="M33.4529 46.4334C32.4146 45.3218 31.6583 43.9433 31.2983 42.4121L19.3438 45.6154L20.4933 49.9059L33.4529 46.4334Z" fill="#FF4405"/>
</g>
<defs>
<clipPath id="clip0_1_60107">
<rect width="80" height="80" fill="white"/>
</clipPath>
</defs>
</svg>
