<svg width="100" height="100" viewBox="0 0 100 100" fill="none" xmlns="http://www.w3.org/2000/svg">
<g clip-path="url(#clip0_1_60116)">
<path d="M60.9454 30.9614C63.8944 36.7436 65.5574 43.2911 65.5574 50.227C65.5574 57.163 63.8944 63.7106 60.9453 69.4928C67.7722 65.7803 72.406 58.5448 72.406 50.2271C72.406 41.9094 67.7723 34.674 60.9454 30.9614Z" fill="#18BFFF"/>
<path d="M51.0858 30.5007C50.0945 29.0965 48.4059 28.3402 46.7123 28.6341C36.4069 30.4225 28.5703 39.4091 28.5703 50.2259C28.5703 61.0427 36.4068 70.0292 46.7122 71.8177C48.4058 72.1116 50.0944 71.3553 51.0857 69.9511C55.0219 64.3749 57.3342 57.5704 57.3342 50.2259C57.3342 42.8813 55.022 36.0769 51.0858 30.5007Z" fill="#FCB400"/>
</g>
<defs>
<clipPath id="clip0_1_60116">
<rect width="100" height="100" fill="white"/>
</clipPath>
</defs>
</svg>
