<svg width="57" height="60" viewBox="0 0 57 60" fill="none" xmlns="http://www.w3.org/2000/svg">
<path fill-rule="evenodd" clip-rule="evenodd" d="M28.9899 15.5458C28.6331 15.4724 28.265 15.4724 27.9082 15.5458C27.4957 15.6306 27.127 15.8372 26.8338 16.0013L26.7539 16.046L16.8193 21.5652C16.7918 21.5805 16.7635 21.5961 16.7346 21.612C16.4243 21.7829 16.0341 21.9978 15.7345 22.3229C15.4754 22.604 15.2794 22.9372 15.1595 23.3002C15.0208 23.72 15.0224 24.1653 15.0237 24.5196C15.0238 24.5527 15.024 24.585 15.024 24.6165V35.5138C15.024 35.5452 15.0238 35.5775 15.0237 35.6107C15.0224 35.9649 15.0208 36.4103 15.1595 36.8301C15.2794 37.1931 15.4754 37.5262 15.7345 37.8073C16.0341 38.1324 16.4243 38.3473 16.7346 38.5182C16.7635 38.5342 16.7918 38.5498 16.8193 38.5651L26.7539 44.0843L26.8338 44.1289C27.127 44.2931 27.4957 44.4996 27.9082 44.5844C28.265 44.6578 28.6331 44.6578 28.9899 44.5844C29.4025 44.4996 29.7712 44.2931 30.0643 44.1289L30.1442 44.0843L40.0788 38.5651C40.091 38.5583 40.1032 38.5515 40.1157 38.5446C40.1314 38.5359 40.1474 38.5272 40.1636 38.5182C40.4739 38.3473 40.864 38.1324 41.1636 37.8073C41.4227 37.5262 41.6188 37.1931 41.7387 36.8301C41.8774 36.4103 41.8757 35.9649 41.8744 35.6106C41.8743 35.5775 41.8742 35.5452 41.8742 35.5138V24.6165C41.8742 24.585 41.8743 24.5527 41.8744 24.5196C41.8757 24.1653 41.8774 23.72 41.7387 23.3002C41.6188 22.9372 41.4227 22.604 41.1636 22.3229C40.864 21.9978 40.4739 21.7829 40.1636 21.612L40.1625 21.6114C40.1339 21.5956 40.1059 21.5803 40.0788 21.5652L30.1442 16.046L30.0643 16.0013C29.7712 15.8372 29.4025 15.6306 28.9899 15.5458ZM28.0579 18.3931C28.2613 18.2801 28.3652 18.223 28.4426 18.1856L28.4491 18.1825L28.4555 18.1856C28.533 18.223 28.6368 18.2801 28.8402 18.3931L37.7673 23.3525L28.449 28.5293L19.1308 23.3525L28.0579 18.3931ZM17.709 25.6341L27.1066 30.855V41.2086L18.1233 36.2179C17.9086 36.0986 17.7989 36.0371 17.722 35.9881L17.7155 35.9839L17.7151 35.9762C17.7095 35.8852 17.709 35.7594 17.709 35.5138V25.6341Z" fill="#F07167"/>
</svg>
