<svg width="120" height="120" viewBox="0 0 120 120" fill="none" xmlns="http://www.w3.org/2000/svg">
<g clip-path="url(#clip0_1_60121)">
<path fill-rule="evenodd" clip-rule="evenodd" d="M34.2915 67.5322C35.7759 69.0081 35.7758 71.4009 34.2914 72.8767L34.2154 72.9523C32.731 74.4281 30.3243 74.428 28.8399 72.9523C27.3555 71.4764 27.3555 69.0836 28.8399 67.6077L28.9159 67.5322C30.4004 66.0563 32.8071 66.0563 34.2915 67.5322Z" fill="#A4BCFD"/>
<path fill-rule="evenodd" clip-rule="evenodd" d="M52.1632 68.6698C53.645 70.1483 53.6406 72.5411 52.1535 74.0144L41.6246 84.4447C40.1375 85.9179 37.7308 85.9135 36.249 84.435C34.7673 82.9565 34.7717 80.5637 36.2588 79.0906L46.7877 68.6602C48.2748 67.187 50.6815 67.1913 52.1632 68.6698Z" fill="#6172F3"/>
<path fill-rule="evenodd" clip-rule="evenodd" d="M66.4513 86.6252C67.6158 84.8885 69.9758 84.4192 71.7224 85.577L71.9505 85.7281C73.6972 86.8859 74.1692 89.2322 73.0047 90.9688C71.8402 92.7054 69.4803 93.1747 67.7336 92.017L67.5055 91.8658C65.7589 90.7081 65.2868 88.3618 66.4513 86.6252Z" fill="#A4BCFD"/>
<path fill-rule="evenodd" clip-rule="evenodd" d="M91.541 67.3046C93.0254 68.7805 93.0254 71.1733 91.541 72.6492L86.3715 77.7887C84.8871 79.2645 82.4805 79.2645 80.9961 77.7887C79.5117 76.3129 79.5117 73.9201 80.9961 72.4443L86.1655 67.3046C87.6499 65.8288 90.0566 65.8288 91.541 67.3046Z" fill="#6172F3"/>
<path fill-rule="evenodd" clip-rule="evenodd" d="M91.6114 48.2959C93.0958 49.7717 93.0958 52.1646 91.6114 53.6403L53.4107 91.6205C51.9263 93.0963 49.5196 93.0963 48.0352 91.6205C46.5508 90.1447 46.5508 87.7519 48.0352 86.276L86.2358 48.2959C87.7202 46.82 90.127 46.82 91.6114 48.2959Z" fill="#3538CD"/>
<path fill-rule="evenodd" clip-rule="evenodd" d="M84.3888 36.6181C85.8732 38.0939 85.8732 40.4868 84.3888 41.9625L62.4186 63.8059C60.9342 65.2818 58.5274 65.2818 57.043 63.8059C55.5586 62.3301 55.5586 59.9373 57.043 58.4614L79.0132 36.6181C80.4976 35.1423 82.9044 35.1423 84.3888 36.6181Z" fill="#3538CD"/>
<path fill-rule="evenodd" clip-rule="evenodd" d="M72.7993 29.2101C74.2847 30.6849 74.2863 33.0777 72.8029 34.5545L44.561 62.6712C43.0776 64.148 40.6708 64.1497 39.1854 62.6748C37.7 61.2 37.6984 58.8072 39.1818 57.3303L67.4237 29.2137C68.9071 27.7368 71.3138 27.7352 72.7993 29.2101Z" fill="#3538CD"/>
<path fill-rule="evenodd" clip-rule="evenodd" d="M44.8279 38.2097C46.3098 39.6881 46.3057 42.0808 44.8187 43.5541L33.7576 54.5136C32.2706 55.9868 29.8639 55.9827 28.3821 54.5043C26.9002 53.026 26.9044 50.6332 28.3913 49.1598L39.4525 38.2004C40.9394 36.7271 43.3462 36.7312 44.8279 38.2097Z" fill="#6172F3"/>
<path fill-rule="evenodd" clip-rule="evenodd" d="M51.598 27.2729C53.6973 27.2729 55.3991 28.9649 55.3991 31.0521V31.43C55.3991 33.5171 53.6973 35.2091 51.598 35.2091C49.4987 35.2091 47.7969 33.5171 47.7969 31.43V31.0521C47.7969 28.9649 49.4987 27.2729 51.598 27.2729Z" fill="#A4BCFD"/>
</g>
<defs>
<clipPath id="clip0_1_60121">
<rect width="120" height="120" fill="white"/>
</clipPath>
</defs>
</svg>
