<svg width="100" height="100" viewBox="0 0 100 100" fill="none" xmlns="http://www.w3.org/2000/svg">
<g clip-path="url(#clip0_1_60146)">
<path d="M38.1206 26.8863L44.2477 49.753V24.6129C44.7336 24.4995 45.2246 24.3997 45.7205 24.3138V49.7554L52.6119 24.0361C53.1085 24.0811 53.6012 24.1399 54.0894 24.2122L47.1424 50.1387L60.9512 26.2212C61.4011 26.4235 61.8442 26.6383 62.2801 26.8649L48.4198 50.8716L68.2071 31.0843C68.5639 31.4216 68.9111 31.7689 69.2485 32.1257L49.4582 51.9159L73.4678 38.054C73.6944 38.49 73.909 38.9331 74.1114 39.383L50.1998 53.1884L76.1192 46.2433C76.1914 46.7315 76.2502 47.2241 76.2952 47.7208L50.5762 54.6121H76.0172C75.9312 55.108 75.8314 55.599 75.718 56.0849H50.5723L73.4435 62.2132C73.2086 62.663 72.961 63.105 72.7013 63.539L50.1976 57.5092L68.9933 68.3609C68.6375 68.7268 68.2711 69.0823 67.8946 69.427L49.4629 58.7855L63.4098 72.7324C62.9687 72.9902 62.5193 73.2354 62.0622 73.4676L48.42 59.8254L57.3585 75.3073C56.8691 75.4457 56.3739 75.5702 55.8733 75.6803L47.1433 60.5595L51.3524 76.268C50.9772 76.284 50.6 76.2921 50.2209 76.2921C50.0915 76.2921 49.9624 76.2911 49.8334 76.2892L45.7204 60.9395V75.9067C45.2246 75.8208 44.7336 75.721 44.2477 75.6076V60.9419L40.6212 74.4762C40.1587 74.2938 39.7025 74.0986 39.2533 73.8911L42.8246 60.5628L36.1205 72.1746C35.7055 71.9088 35.2984 71.6316 34.8998 71.3435L41.5512 59.823L32.2364 69.1378C31.8796 68.8004 31.5323 68.4532 31.195 68.0964L40.5068 58.7846L28.9896 65.434C28.7014 65.0355 28.4242 64.6284 28.1583 64.2134L39.7757 57.5062L26.4407 61.0792C26.2331 60.63 26.0379 60.1739 25.8555 59.7114L39.3898 56.0849H24.7239C24.6105 55.599 24.5106 55.108 24.4247 54.6121H39.3858L24.042 50.5008C24.0401 50.3708 24.0391 50.2406 24.0391 50.1102C24.0391 49.7321 24.0471 49.3559 24.063 48.9817L39.7735 53.1913L24.6504 44.46C24.7605 43.9594 24.8849 43.4641 25.0233 42.9747L40.5115 51.9169L26.8636 38.269C27.0958 37.8119 27.341 37.3625 27.5987 36.9214L41.5514 50.874L30.9056 32.435C31.2503 32.0585 31.6059 31.6921 31.9719 31.3363L42.8255 50.1354L36.7948 27.6284C37.2287 27.3686 37.6708 27.1211 38.1206 26.8863Z" fill="#2A9D8F"/>
</g>
<defs>
<clipPath id="clip0_1_60146">
<rect width="100" height="100" fill="white"/>
</clipPath>
</defs>
</svg>
