<svg width="140" height="140" viewBox="0 0 140 140" fill="none" xmlns="http://www.w3.org/2000/svg">
<g clip-path="url(#clip0_1_60134)">
<path d="M140 70C140 31.3401 108.66 0 70 0C31.3401 0 0 31.3401 0 70C0 108.66 31.3401 140 70 140C108.66 140 140 108.66 140 70Z" fill="#052233"/>
<path d="M139.5 70C139.5 31.6162 108.384 0.5 70 0.5C31.6162 0.5 0.5 31.6162 0.5 70C0.5 108.384 31.6162 139.5 70 139.5C108.384 139.5 139.5 108.384 139.5 70Z" fill="#052233" stroke="black" stroke-opacity="0.1"/>
<path d="M125 70C125 39.6243 100.376 15 70 15C39.6243 15 15 39.6243 15 70C15 100.376 39.6243 125 70 125C100.376 125 125 100.376 125 70Z" fill="#052233"/>
<path d="M51 93V86.0171L79.6007 52.9829H51V46H89V52.9829L60.3993 86.0171H89V93H51Z" fill="white"/>
</g>
<defs>
<clipPath id="clip0_1_60134">
<rect width="140" height="140" fill="white"/>
</clipPath>
</defs>
</svg>
