<svg width="80" height="80" viewBox="0 0 80 80" fill="none" xmlns="http://www.w3.org/2000/svg">
<g clip-path="url(#clip0_1_60150)">
<path d="M56.4561 27.3217L38.3061 32.1857C35.6388 32.9005 32.8971 35.6423 32.1823 38.3096L27.3183 56.4595C26.6035 59.1268 28.1863 60.7096 30.8536 59.9948L49.0036 55.1308C51.6709 54.416 54.4126 51.6743 55.1274 49.007L59.9914 30.857C60.7062 28.1897 59.1234 26.6069 56.4561 27.3217Z" fill="#2E90FA"/>
<path d="M49.4092 20.2695L31.2593 25.1335C28.592 25.8483 25.8502 28.59 25.1354 31.2573L20.2714 49.4073C19.5566 52.0746 21.1394 53.6574 23.8067 52.9426L41.9567 48.0786C44.624 47.3638 47.3657 44.622 48.0805 41.9547L52.9445 23.8048C53.6593 21.1375 52.0765 19.5547 49.4092 20.2695Z" fill="#EFD515"/>
</g>
<defs>
<clipPath id="clip0_1_60150">
<rect width="80" height="80" fill="white"/>
</clipPath>
</defs>
</svg>
