<svg width="78" height="17" viewBox="0 0 78 17" fill="none" xmlns="http://www.w3.org/2000/svg">
<g clip-path="url(#clip0_1_59874)">
<path d="M75.5348 0H78.5798L72.6389 9.79746V17.86H70.0536V9.79746L64.125 0H67.17L71.3462 6.90161L75.5348 0Z" fill="black"/>
<path d="M52.8828 17.86V6.80381H57.4214L52.8828 2.65349V0H63.1366V2.65349L56.1785 2.55143L61.1501 6.9654H55.468H61.9435V9.61886H55.468V17.86H52.8828Z" fill="black"/>
<path d="M46.9453 17.86V0H49.5305V17.86H46.9453Z" fill="black"/>
<path d="M30.2109 17.86V0H33.0075L40.9993 13.0633V0H43.5844V17.86H40.7879L32.7962 4.79669V17.86H30.2109Z" fill="black"/>
<path d="M16.5703 17.86V0H27.3711V2.65349H19.1555V6.9654H25.7678V9.61886H19.1555V15.2065H27.3711V17.86H16.5703Z" fill="black"/>
<path d="M0 17.86V15.2065L10.5895 2.65349H0V0H14.0696V2.65349L3.4801 15.2065H14.0696V17.86H0Z" fill="black"/>
</g>
<defs>
<clipPath id="clip0_1_59874">
<rect width="78.584" height="17.86" fill="white"/>
</clipPath>
</defs>
</svg>
