<svg width="16" height="12" viewBox="0 0 16 12" fill="none" xmlns="http://www.w3.org/2000/svg">
<g clip-path="url(#clip0_1_60414)">
<path opacity="0.7" d="M15.0329 3.54979C15.0329 3.54979 14.8926 2.55643 14.4608 2.12026C13.9141 1.5462 13.3028 1.54338 13.0225 1.50961C11.015 1.36328 8.0009 1.36328 8.0009 1.36328H7.99529C7.99529 1.36328 4.98118 1.36328 2.97365 1.50961C2.69327 1.54338 2.08203 1.5462 1.53529 2.12026C1.1035 2.55643 0.966111 3.54979 0.966111 3.54979C0.966111 3.54979 0.820312 4.71761 0.820312 5.88262V6.97446C0.820312 8.13948 0.963307 9.3073 0.963307 9.3073C0.963307 9.3073 1.1035 10.3006 1.53249 10.7368C2.07923 11.3109 2.79701 11.2912 3.11665 11.3531C4.26621 11.4628 7.99809 11.4966 7.99809 11.4966C7.99809 11.4966 11.015 11.491 13.0225 11.3475C13.3028 11.3137 13.9141 11.3109 14.4608 10.7368C14.8926 10.3006 15.0329 9.3073 15.0329 9.3073C15.0329 9.3073 15.1758 8.14229 15.1758 6.97446V5.88262C15.1758 4.71761 15.0329 3.54979 15.0329 3.54979ZM6.51488 8.29987V4.25048L10.3925 6.28221L6.51488 8.29987Z" fill="white"/>
</g>
<defs>
<clipPath id="clip0_1_60414">
<rect width="16" height="11" fill="white" transform="translate(0 0.5)"/>
</clipPath>
</defs>
</svg>
