<svg width="12" height="18" viewBox="0 0 12 18" fill="none" xmlns="http://www.w3.org/2000/svg">
<g clip-path="url(#clip0_1_60408)">
<g clip-path="url(#clip1_1_60408)">
<path opacity="0.7" d="M6.92605 6.88181H10.726L10.3038 8.5707H6.92605V16.1707H5.23716V8.5707H1.85938V6.88181H5.23716V5.30101C5.23716 3.79537 5.39421 3.24901 5.68808 2.69844C5.97604 2.15445 6.42089 1.7096 6.96488 1.42164C7.51546 1.12777 8.06181 0.970703 9.56746 0.970703C10.0083 0.970703 10.395 1.01293 10.726 1.09737V2.65959H9.56746C8.44941 2.65959 8.10911 2.72546 7.76204 2.91124C7.50533 3.04804 7.31448 3.23888 7.17768 3.49559C6.9919 3.84266 6.92605 4.18297 6.92605 5.30101V6.88181Z" fill="white" stroke="white" stroke-width="0.8"/>
</g>
</g>
<defs>
<clipPath id="clip0_1_60408">
<rect width="11" height="17" fill="white" transform="translate(0.5 0.5)"/>
</clipPath>
<clipPath id="clip1_1_60408">
<rect width="11" height="17" fill="white" transform="translate(0.5 0.5)"/>
</clipPath>
</defs>
</svg>
